<mxfile host="app.diagrams.net" agent="Mozilla/5.0 (Windows NT 10.0; Win64; x64; rv:136.0) Gecko/20100101 Firefox/136.0" version="26.1.3">
  <diagram name="Page-1" id="0mtHqHfYrwTecAeKPZze">
    <mxGraphModel dx="1562" dy="846" grid="1" gridSize="10" guides="1" tooltips="1" connect="1" arrows="1" fold="1" page="1" pageScale="1" pageWidth="850" pageHeight="1100" math="0" shadow="0">
      <root>
        <mxCell id="0" />
        <mxCell id="1" parent="0" />
        <mxCell id="OPm2PPB3l00t3WLVtLND-13" value="" style="ellipse;whiteSpace=wrap;html=1;rotation=90;fillColor=none;" vertex="1" parent="1">
          <mxGeometry x="27.5" y="340" width="720" height="305" as="geometry" />
        </mxCell>
        <mxCell id="OPm2PPB3l00t3WLVtLND-18" style="rounded=0;orthogonalLoop=1;jettySize=auto;html=1;exitX=0.5;exitY=0.5;exitDx=0;exitDy=0;exitPerimeter=0;entryX=0.5;entryY=1;entryDx=0;entryDy=0;fillColor=#dae8fc;strokeColor=#6c8ebf;" edge="1" parent="1" source="OPm2PPB3l00t3WLVtLND-1" target="OPm2PPB3l00t3WLVtLND-13">
          <mxGeometry relative="1" as="geometry" />
        </mxCell>
        <object label="Registrado" id="OPm2PPB3l00t3WLVtLND-1">
          <mxCell style="shape=umlActor;verticalLabelPosition=bottom;verticalAlign=top;html=1;outlineConnect=0;noLabel=0;metaEdit=1;fillColor=#dae8fc;strokeColor=#6c8ebf;" vertex="1" parent="1">
            <mxGeometry x="150" y="380" width="30" height="60" as="geometry" />
          </mxCell>
        </object>
        <mxCell id="OPm2PPB3l00t3WLVtLND-12" style="edgeStyle=orthogonalEdgeStyle;rounded=0;orthogonalLoop=1;jettySize=auto;html=1;entryX=0.5;entryY=0;entryDx=0;entryDy=0;fillColor=#f5f5f5;strokeColor=#666666;" edge="1" parent="1" source="OPm2PPB3l00t3WLVtLND-3" target="OPm2PPB3l00t3WLVtLND-11">
          <mxGeometry relative="1" as="geometry" />
        </mxCell>
        <mxCell id="OPm2PPB3l00t3WLVtLND-14" style="rounded=0;orthogonalLoop=1;jettySize=auto;html=1;exitX=0.5;exitY=0.5;exitDx=0;exitDy=0;exitPerimeter=0;entryX=0;entryY=1;entryDx=0;entryDy=0;fillColor=#f5f5f5;strokeColor=#666666;" edge="1" parent="1" source="OPm2PPB3l00t3WLVtLND-3" target="OPm2PPB3l00t3WLVtLND-4">
          <mxGeometry relative="1" as="geometry" />
        </mxCell>
        <mxCell id="OPm2PPB3l00t3WLVtLND-15" style="rounded=0;orthogonalLoop=1;jettySize=auto;html=1;exitX=0.5;exitY=0.5;exitDx=0;exitDy=0;exitPerimeter=0;entryX=0;entryY=0.5;entryDx=0;entryDy=0;fillColor=#f5f5f5;strokeColor=#666666;" edge="1" parent="1" source="OPm2PPB3l00t3WLVtLND-3" target="OPm2PPB3l00t3WLVtLND-8">
          <mxGeometry relative="1" as="geometry" />
        </mxCell>
        <mxCell id="OPm2PPB3l00t3WLVtLND-16" style="rounded=0;orthogonalLoop=1;jettySize=auto;html=1;exitX=0.5;exitY=0.5;exitDx=0;exitDy=0;exitPerimeter=0;entryX=0;entryY=0.5;entryDx=0;entryDy=0;fillColor=#f5f5f5;strokeColor=#666666;" edge="1" parent="1" source="OPm2PPB3l00t3WLVtLND-3" target="OPm2PPB3l00t3WLVtLND-9">
          <mxGeometry relative="1" as="geometry" />
        </mxCell>
        <mxCell id="OPm2PPB3l00t3WLVtLND-17" style="rounded=0;orthogonalLoop=1;jettySize=auto;html=1;exitX=0.5;exitY=0.5;exitDx=0;exitDy=0;exitPerimeter=0;entryX=0;entryY=0.5;entryDx=0;entryDy=0;fillColor=#f5f5f5;strokeColor=#666666;" edge="1" parent="1" source="OPm2PPB3l00t3WLVtLND-3" target="OPm2PPB3l00t3WLVtLND-10">
          <mxGeometry relative="1" as="geometry" />
        </mxCell>
        <object label="Anónimo" id="OPm2PPB3l00t3WLVtLND-3">
          <mxCell style="shape=umlActor;verticalLabelPosition=bottom;verticalAlign=top;html=1;outlineConnect=0;metaEdit=1;fillColor=#f5f5f5;fontColor=#333333;strokeColor=#666666;" vertex="1" parent="1">
            <mxGeometry x="150" y="520" width="30" height="60" as="geometry" />
          </mxCell>
        </object>
        <mxCell id="OPm2PPB3l00t3WLVtLND-4" value="&lt;div&gt;Ver publicaciones&lt;/div&gt;" style="ellipse;whiteSpace=wrap;html=1;" vertex="1" parent="1">
          <mxGeometry x="240" y="440" width="120" height="80" as="geometry" />
        </mxCell>
        <mxCell id="OPm2PPB3l00t3WLVtLND-5" value="&lt;div&gt;Calificar publicación (+1, -1)&lt;/div&gt;" style="ellipse;whiteSpace=wrap;html=1;" vertex="1" parent="1">
          <mxGeometry x="250" y="350" width="120" height="80" as="geometry" />
        </mxCell>
        <mxCell id="OPm2PPB3l00t3WLVtLND-6" value="&lt;div&gt;Crear publicación&lt;/div&gt;" style="ellipse;whiteSpace=wrap;html=1;" vertex="1" parent="1">
          <mxGeometry x="270" y="260" width="120" height="80" as="geometry" />
        </mxCell>
        <mxCell id="OPm2PPB3l00t3WLVtLND-7" value="Responder a publicaciones" style="ellipse;whiteSpace=wrap;html=1;" vertex="1" parent="1">
          <mxGeometry x="305" y="170" width="120" height="80" as="geometry" />
        </mxCell>
        <mxCell id="OPm2PPB3l00t3WLVtLND-8" value="Explorar mapa" style="ellipse;whiteSpace=wrap;html=1;" vertex="1" parent="1">
          <mxGeometry x="250" y="530" width="120" height="80" as="geometry" />
        </mxCell>
        <mxCell id="OPm2PPB3l00t3WLVtLND-9" value="Donar" style="ellipse;whiteSpace=wrap;html=1;" vertex="1" parent="1">
          <mxGeometry x="260" y="620" width="120" height="80" as="geometry" />
        </mxCell>
        <mxCell id="OPm2PPB3l00t3WLVtLND-10" value="Ver finanzas transparentes" style="ellipse;whiteSpace=wrap;html=1;" vertex="1" parent="1">
          <mxGeometry x="290" y="710" width="120" height="80" as="geometry" />
        </mxCell>
        <mxCell id="OPm2PPB3l00t3WLVtLND-11" value="&lt;div&gt;Registrarse&lt;/div&gt;" style="ellipse;whiteSpace=wrap;html=1;" vertex="1" parent="1">
          <mxGeometry x="105" y="720" width="120" height="80" as="geometry" />
        </mxCell>
        <mxCell id="OPm2PPB3l00t3WLVtLND-23" style="rounded=0;orthogonalLoop=1;jettySize=auto;html=1;exitX=0.5;exitY=0.5;exitDx=0;exitDy=0;exitPerimeter=0;entryX=0;entryY=0.5;entryDx=0;entryDy=0;fillColor=#fff2cc;strokeColor=#d6b656;" edge="1" parent="1" source="OPm2PPB3l00t3WLVtLND-19" target="OPm2PPB3l00t3WLVtLND-21">
          <mxGeometry relative="1" as="geometry" />
        </mxCell>
        <mxCell id="OPm2PPB3l00t3WLVtLND-24" style="rounded=0;orthogonalLoop=1;jettySize=auto;html=1;exitX=0.5;exitY=0.5;exitDx=0;exitDy=0;exitPerimeter=0;fillColor=#fff2cc;strokeColor=#d6b656;" edge="1" parent="1" source="OPm2PPB3l00t3WLVtLND-19" target="OPm2PPB3l00t3WLVtLND-20">
          <mxGeometry relative="1" as="geometry" />
        </mxCell>
        <mxCell id="OPm2PPB3l00t3WLVtLND-25" style="edgeStyle=orthogonalEdgeStyle;rounded=0;orthogonalLoop=1;jettySize=auto;html=1;exitX=0.5;exitY=0.5;exitDx=0;exitDy=0;exitPerimeter=0;entryX=0.5;entryY=0;entryDx=0;entryDy=0;fillColor=#fff2cc;strokeColor=#d6b656;" edge="1" parent="1" source="OPm2PPB3l00t3WLVtLND-19" target="OPm2PPB3l00t3WLVtLND-13">
          <mxGeometry relative="1" as="geometry" />
        </mxCell>
        <object label="Admin" id="OPm2PPB3l00t3WLVtLND-19">
          <mxCell style="shape=umlActor;verticalLabelPosition=bottom;verticalAlign=top;html=1;outlineConnect=0;fillColor=#fff2cc;strokeColor=#d6b656;metaEdit=1;" vertex="1" parent="1">
            <mxGeometry x="580" y="462.5" width="30" height="60" as="geometry" />
          </mxCell>
        </object>
        <mxCell id="OPm2PPB3l00t3WLVtLND-20" value="Fijar puntuación de publicación" style="ellipse;whiteSpace=wrap;html=1;" vertex="1" parent="1">
          <mxGeometry x="680" y="499" width="120" height="80" as="geometry" />
        </mxCell>
        <mxCell id="OPm2PPB3l00t3WLVtLND-21" value="Bloquear / desbloquear usuarios" style="ellipse;whiteSpace=wrap;html=1;" vertex="1" parent="1">
          <mxGeometry x="680" y="406" width="120" height="80" as="geometry" />
        </mxCell>
        <mxCell id="OPm2PPB3l00t3WLVtLND-28" style="edgeStyle=orthogonalEdgeStyle;rounded=0;orthogonalLoop=1;jettySize=auto;html=1;exitX=0.5;exitY=0.5;exitDx=0;exitDy=0;exitPerimeter=0;entryX=0;entryY=0.5;entryDx=0;entryDy=0;fillColor=#e1d5e7;strokeColor=#9673a6;" edge="1" parent="1" source="OPm2PPB3l00t3WLVtLND-26" target="OPm2PPB3l00t3WLVtLND-27">
          <mxGeometry relative="1" as="geometry" />
        </mxCell>
        <object label="Robot" id="OPm2PPB3l00t3WLVtLND-26">
          <mxCell style="shape=umlActor;verticalLabelPosition=bottom;verticalAlign=top;html=1;outlineConnect=0;metaEdit=1;fillColor=#e1d5e7;strokeColor=#9673a6;" vertex="1" parent="1">
            <mxGeometry x="580" y="270" width="30" height="60" as="geometry" />
          </mxCell>
        </object>
        <mxCell id="OPm2PPB3l00t3WLVtLND-27" value="Mantener reporte de finanzas actualizado" style="ellipse;whiteSpace=wrap;html=1;" vertex="1" parent="1">
          <mxGeometry x="680" y="260" width="120" height="80" as="geometry" />
        </mxCell>
      </root>
    </mxGraphModel>
  </diagram>
</mxfile>
